<?xml version="1.0" encoding="UTF-8"?>
<svg id="Layer_1" data-name="Layer 1" xmlns="http://www.w3.org/2000/svg" viewBox="0 0 1593.11 1571.49">
  <path fill="#ffffff" d="M1590.73,655.89c-44.28-234.69-193.12-437.1-401.08-553.38-44.63-24.96-88.26-47.46-138.67-59.33l91.58,42.46c17.27,8.01,31.25,21.66,46.63,33.64,16.13,12.56,24.4,38.9,9.28,55.62-6.04,6.68-18.32,13.03-26.19,17.6-31.9-37.08-77.54-57.84-121.18-73.39,35.71,51.94,90.89,80.27,66.46,141.32l-2.79-42.45c-23.99,5.08-41.36,8.47-61.81,10.55-17-27.49-31.79-49.82-53.19-73.21l11.57,66.02c.5,2.86-6.82,12.73-6.42,12.55l-6.82-12.04c-1.4-2.47-8.47-.35-11.36-1.07l-34.5-8.68c-4.32-18.83-7.38-31.9-13.42-49.43l-10.27,37.39c2.29-8.36-6.03,10.13-6.88,5.54-2.17-11.71-59.65-46.63-87.08-95.41-19.29-34.31-22.52-69.83-21.06-110.18-15.23,12.33-7.61,31.1-8.12,46.99-1.2,37.23,3.42,72.19,11.32,108.59,4.38,20.19,7.61,41.89,18.67,59.17,17.51,27.37,33.58,52.43,41.95,84.21,3.81,14.48,5.52,40.98-6.64,48.01-18.14,10.48-31.94-2.17-44.6-15.72,12.31,53.49,19.47,7.61,24.93,83.79,1.18,16.43-1.19,29.14-16.36,37.73-.21,3.08.44,7.58-1.64,8.07l-10.76,2.5c-21.71,5.05-11.08-.12-5.26,54.31l7.43,69.49c1.75,16.33,1.11,34.65,16.05,46.83-9.93-50.73-6.27-97.05,7.06-144.43,4.69-16.68,7.62-29.96,20.05-42.4,23.24-23.27,40.53-20.89,75.3-17.56l66.04,76.7c8.75,10.16,35.59,44.22,27.39,54.34-9.51,11.73-17.31,22.23-27.27,30.98l-32.78,28.78c3.71,4.21,6.92,6.28,5.81,7.81l-4.66,6.45c-13.93,19.28-39.76,76.05-41.11,98.75,26.08-48.17,20.29-70.51,77.29-98.66,8.08-3.99,13.5-6.44,23.64-1.63,11.1,5.28,30.01,11.81,29.79,27.57-.66,46.89-21.47,109.88-39.71,154.11-2.98,7.21-15.64,14.47-21.84,19.16-12.52,9.48-26.21,7.23-34.78-5.99-10.82-16.67-25.85-29.23-41.87-41.42-12.59-9.58-20.62-24.06-36.31-28.11,27.3,30.09,33.02,61.06,19.57,95.85-3.1,8.01-4.34,25.95-17.61,21.49-11.07-9.25-22.02-24.56-37.04-23.85,21.99,19.18,24.43,45.35,29.21,68.81l-20.15,26.56-15.14-10.23c5.36,16.49,10.66,28.17,7.96,42.1-1.02,5.27-12.31,11.78-17.38,14.88-30.34,61.3-28.09,80.06-29.94,147.57-.81,29.53,2.39,57.35,12.05,85.25,19.59,56.62,30.2,96.35,61.7,148.41,29.17,48.22,64.4,88.46,101.6,131.22,68.07,78.23,94.61,68.29,79.15,55.5-33.58-27.76-58.13-68.1-80.16-105.86l-34.74-59.54c-14.61-25.05-17.21-51.28-18.1-79.24l-8.31-27.05c-2.41-7.85-5.54-15.01-9.08-22.97,27.42,12.39,52.9,22.97,83.8,29.92l-39.45-39.09c-47.02-46.59-47.79-46.83-34.72-105.41l.73-23.06c3.26,26.47,83.49,59.82,106.68,67.76l-57.39-70.72c-12.46-15.35-21.34-38.23-11.78-57.91,6.24-12.83,20.81-24.21,30.6-35.37l11.36-20.7c-5.23,17.86-7.67,27.59,1,40.89,20.48,31.39,43.72,59.5,74.27,84.97l-29.22-91.57c-5.32-16.67-5.76-42.3,7.82-54.22,43.06-37.82,50.93-17.34,98.62-39.69-21.05,17.94-27.48,96.32-26.34,128.06l46.66-77.04c8.4-13.87,21.87-28.06,37.85-32.56,20.04-5.64,40.25,3.08,57.41,10.62l12.75-1.39c-26.7,4.26-44.05,79.91-49.37,109l57.29-63.96c8.56-9.55,26.35-19.82,38.92-10.78,20.28,14.6,37.53,33.53,53.45,52.39l19.81-2.43c-16.3,5.9-29.14,13.72-38.11,28.95l-28.81,48.91,53.67-33.2c4.66-2.88,18.1-2.37,19.59,2.35,28.27,89.68,6.78,89.03,5.94,123.07-2.53,103.26-54.32,141.91-123.79,207.21-2.71.97.37,1.07,6.05,1.01,93.2-80.5,178.12-174.87,225.28-290.77,20.72-50.92,17.46-111.45,13.89-164.77-6.74-100.62-56.5-187.9-131.29-252.3l-16.42-27.98c-5.9-10.05-7.09-21.93-17.64-29.38,4,17.61,8.22,27.98,7.31,44.52-7.55-4.38-15.06-8.61-18.45-12.63-20.33-24.13-43.26-42.12-73.98-52.4l-27.99,1.83-5.88-28.25c-13.17,14.25-9.16,46.55-42.02,65.89-5.2,3.06-15.23,4.93-19.56,2.88-12.93-6.11-16.88-30.82-4.73-42.16,7.24-6.76,18.86-8.08,26.08-6.43l-2.03,10.4c-.78,3.98,21.27,3.54,17.92-44.04,46.42-30.41,101.87-47.36,158.13-41.24,11.56,1.26,19.49,15.24,30.83,22.62-3.66-22.09-19.69-38.16-37.03-51.33-9.33-7.09-14.86-14.8-30.34-5.22l-5.63-6.79c15.38.24,23.66.04,36.08-4.39,27.4-9.77,56.24-16.58,86.4-14.08,24.44,2.03,56.41,13.23,73.12,32.75,21.98,25.68,26.68,62.52,32.85,95.57l10.89,58.31c12.66,67.83.6-61.43,3.53-48.06ZM1180.53,322.33l41.85-23.94c13.83-7.91,32.86-10.52,47.41-14.87l-3.82,5.84c-5.92,9.05,15.04,3.76,16.09,14.87.38,4-2.38,12.88-5.33,15.8-30.94,30.56-57.68,58.52-87.82,92.9-16.44-26.49-9.62-40.13-24.06-75.05,3.28-5.1,10.47-12.6,15.67-15.57ZM1024.64,499.81l-66.2-77.41c-1.6-1.88-3.69-6.79-3.12-8.42.77-2.17,4.83-5.87,7.1-6.7l118.51-43.56c2.14-.79,6.28-2.54,6.68-1.06l2.78,10.37-65.76,126.77ZM1048.56,522.59c-10.32-11.67-.62-31.89,5.51-43.67l51.03-98.05c5.81-11.16,17.25-22.77,26.14-30.34l25.88,8.34c6.44,21.68,12.76,42.28,23.21,64.6l-110.3,128.63c-8.68-14.08-13.88-20.91-21.48-29.5ZM1190.35,757.75l11.87,27.72,22.33,10.67c5.54-5.85-7.74-17.99,2.88-25.98,3.13-2.35,15.27,1.94,15.96,6.25,1.48,9.3.29,23.17-.68,38.3,3.97-1.69,11.69-9.21,16.45-14.45,12.45-.33,19.5,17.35,29.69,24.79l51.61,37.67c20.61,15.04,37.31,35.52,49.31,61.09-20.94.07-31.42-18.06-47.56-27.23-44.44-25.27-91.51-43.55-142.35-51.24-25.64-3.88-51.49,2.71-77.28,1.54-27.06-1.23-53.95-2.24-80.67-1.95l7.32-29.07,16.92-69.54c3.78-15.55,15.56-27.94,26.09-37.97l10.2-29.33-3.72,30.9,91.65,47.82ZM1394.55,467.39c-6.78,4.29-11.78,9.3-19.34,9.22-20.16-.23-35.96.76-57.99,3.03-2.04,40.54-41.64,45.54-70.23,48.92-11.04,1.31-24.9,12.98-35.91,16.56l-29.72,9.66c-5.19,1.69-12.61,1.9-16.55-2.67-13.37-15.51,57.67-94.99,71.11-111.14l32.07-38.55c4.5-5.41,21.64-7.81,27.91-5.3,5.06,2.02,8.58,15.17,11.03,21.62,17.48-3.34,36.13-14.52,52.93-11.52,17.9,3.2,29.22,23.18,45.09,28.59,17.31,5.9,35.66,6,49.64,19.69-19.8,1.86-42.94,1.07-60.05,11.89Z"/>
  <path fill="#ffffff" d="M662.68,576.86c6.11,9.44,11.98,16.41,18.42,24.19l33.28,40.26-4.27-34.96c-2.52-20.62-10.36-7.85-47.43-29.49Z"/>
  <path fill="#ffffff" d="M930.46,576.62c-14.07,6.88-22.33,12-34.75,15.08-21.14,5.24-6,11.1-17.12,49.66,12.55-12.8,21.6-25.2,32.03-38.31,6.87-8.63,15.18-15.71,19.85-26.44Z"/>
  <path fill="#ffffff" d="M780.6.35c3.72,103.32-34.73,139.44-106.06,198.67-.95,1.49-3,8.46-3.87,7.06-.65-1.05-5.13-5.32-5.46-6.52l-10.56-38.18-13.69,50.63c-11.58,4.02-32.56,8.3-43.79,9.72-2.13.27-6.84,9.09-8.5,7.59l-6.91-6.27,12.86-68.73c-22.65,25.57-36.57,46.73-53.97,74.33l-62.24-10.64-2.83,39.32c-11.46-26.14-3.69-52.48,12.98-72.62l55.05-66.51c-50.08,19.69-88.41,35.78-121.97,74.78-8.3-5.12-18.2-10.84-25.43-17.35-13.46-12.11-9.9-38.71,3.5-51.34,16.46-15.5,34.99-28.9,54.76-40.79,27.84-16.75,61.76-21.59,85.47-41.41C343.13,108.55,181.43,247.41,84.74,426.67,44.71,500.86,7.86,577.03,2.6,660.52L0,701.65c-.09,1.4.81,5.62,1.03,6.78.22,1.18,4.9-2.03,5.13-3.26l11.35-60.89c5.96-32,10.3-64.39,30.73-92.02,14.53-19.65,49.01-32.54,74.21-34.81,60.53-5.45,89.68,22.65,117.75,17.96,1.45-.24,6.16,4.1,4.74,4.27-20.77,2.43-17.19-7.67-33.84,6.53-17,14.49-34.34,28.95-37.57,52.6,11.77-8.09,19.53-21.41,31.98-22.56,55.66-5.16,112.11,11.15,157.02,42.37-4.74,43.8,19.11,51.65,17.09,40.84l-1.23-6.57c13.12-6.48,28.9,2.65,32.67,17.47,2.63,10.34-3.1,31.92-18.3,30.38-24.59-2.5-39.69-28.71-46.25-51.11-2.43-8.29-5.62-15.3-10-18.96-7.94,63.77-3.04-6.56-81.45,53.58-19.33,14.82-26.77,34.53-44.95,36.65l7.72-42.51c-11.66,8.42-20.58,42.41-35.47,59.08-76.43,66.87-125.34,156.8-129.95,260.07-2.22,49.78-5.27,106.84,14.45,154.5,47.86,115.66,131.79,212.86,227.82,291.46-15.22-23.23-38.08-39.27-57.45-58.9-36.17-36.65-57.93-80.82-61.8-132.52l-2.38-31.77c-.38-5.07-7.17-14.17-7.15-19.9.09-21.29,5.57-85.15,20.2-92.43,3.22-1.6,11.63.38,15.04,2.49l52.83,32.66c-20.43-34.08-34.36-70.67-67.63-77.9l21.42,1.57c15.99-19.76,33.08-38.8,54.08-52.4,12.85-8.32,30.06,3.69,38.27,12.75l56.92,62.71c-9.42-37.99-21.63-104.3-54.49-111.3l18.54,3.72c16.94-8.64,38.39-16.52,57.84-10.24,16.41,5.3,29.33,20.8,38.02,35.16l45.05,74.43c-.51-44.37-4.83-93.33-22.11-125.71,43.55,16.61,58.83,3.41,94.25,37.09,15.09,14.34,11.96,41.88,5.74,61.13l-27.31,84.49c31.96-26.87,81.4-80.32,81.92-111.29,11.62,14.04,24.29,24.46,32.87,37.46,12.42,18.8,4.86,44.33-8.45,60.82l-58.2,72.06c24.62-8.11,103.46-43.37,105.76-65.64l2.32,24.84c3.93,42.17,24.48,40.63-26.35,91.85l-48.08,48.45c31.64-7.13,55.55-17.34,82.73-29.57-4.8,7.09-16.22,49.75-16.28,50.41-3.73,39.51-7.47,63.63-30.46,100.05-35.84,56.77-49.1,97.85-101.58,143.17-1.61,1.39-3.71,6.08-4.66,7.99-.61,1.24,7.97,3.08,9.75,1.93,25.55-16.43,57.08-45.82,78.34-70.79,34.95-41.03,67.88-78.71,95.43-124.54,32.67-54.35,42.9-93.82,63.21-153.39,10.49-30.76,12.04-61.36,10.03-93.67-4.13-66.25,4.11-63.71-28.56-133.17-3.75-4.63-17.63-11.19-18.42-17.2-1.84-13.9,3-25.01,7.77-40.68l-14.94,8.99-19.6-25.79c2.89-19.95,8.27-40.11,17.31-57.71,5.11-3.67,8.48-6.23,11.81-12.21-17.09,3.79-26.88,13.82-37.93,25.94-3.02.35-13.19-5.67-14.3-10.47l-8.92-38.49c-6.17-26.64,11.28-48.23,25.07-70.17-15.1,6.24-24.8,20.63-37.29,30.29-15.53,12-29.67,24.42-40.39,40.46-8.14,12.19-20.8,14.92-32.92,6.28-7-4.99-20.53-12.33-23.73-20.56-19.37-49.79-35.85-98.07-39.42-150.24-1.17-17.06,16.91-25.14,29.4-30.64,10.34-4.56,15.65-2.98,24.02,1.12,31.11,15.21,54.88,37.44,64.56,71.99,2.2,7.85,6.75,17.03,12.53,25.46,4.52-13.4-40.75-106.91-45.18-104.25l7.63-4.6-24.58-22.56c-9.97-9.15-19.64-18.74-28.87-28.55-19.69-20.91,2.8-46.92,18.61-65.31l65.97-76.75c14.76-3.33,37.49-3.5,51.8,1.08,28.85,9.24,37.66,34.87,44.57,60.2,12.97,47.61,15.74,93.01,6.85,142.35,14.83,3.28,20.75-91.99,21.92-104.24,1.75-18.29,4.75-37.88,7.86-56.01.39-2.29-.7-8.41-2.67-8.56l-8.23-.62c-6.3-.48-10.98-5.52-14.94-9.85-10.97-11.99-16.42-20.33-14.9-36.8,1.59-17.24.31-35.29,9.19-50.7l16.22-28.16c.51-.88-1.62-6.63-2.3-5.87-11.25,12.45-14.99,17.98-32.63,17.67-29.29-.52-17.86-52.22-10.59-70.78,20.72-52.91,42.78-58.26,52.35-112.35,5.73-32.39,13.33-64.43,14.01-97.57l.66-32.26c.27-13.14,2.19-28.59-9.04-37.1ZM312.14,303.35c.63-4.5,8.76-7.02,16.67-9.07l-5.47-11.62c62.52,17.14,44.33,15.4,92.52,41.34,12.73,6.85,13.31,16.43,8.65,28.75-14.56,38.51,1.28,21.56-19.45,60.34-28.52-32.06-58.25-63.5-87.64-92.55-3.41-3.37-5.81-13.33-5.27-17.19ZM384.3,545.34c-11.35-3.84-25.31-14.18-36.72-16.01-27.47-4.41-68.17-8.52-69.81-46.76-15.78-6.22-36.9-6.94-56.23-5.63-10.13.68-14.53-5.04-22.31-9.78-16.22-9.89-38.35-9.85-59.87-11.35,12.16-13.3,32.21-9.56,46.98-19.06l44.42-28.59c15.15-9.75,36.83,6.77,55.91,10.77,2.54-6.02,6.07-18.37,10.52-21.4,5.11-3.48,22.42-1.02,27.04,3.47l42.3,49.88c16.45,19.4,30.75,38.14,45.76,58.23,7.11,9.51,22.49,29.97,17.68,41.87-1.67,4.14-11.45,5.95-15.77,4.48l-29.9-10.12ZM528.09,748.13l22.92,97.21c-28.89-1.12-53.46.37-80.73,1.65-25.53,1.19-51.59-5.87-77.24-1.59-52.33,8.74-102.75,26.79-146.79,55.08-13.98,8.98-24.31,21.01-42.2,25.57,9.99-28.65,29.47-49.43,52.47-66.08l46.52-33.67c10.53-7.62,19.14-22.66,30.84-27.36,6.22,7.8,11.16,13.06,17.41,16.05l-2.07-33.83c-.21-3.49,5.02-9.65,7.95-10.92,3.53-1.53,13.81,1.4,13.3,5.15l-2.82,20.61,24.42-10.28c3.41-8.07,6.27-24.6,13.13-28.23l89.75-47.58-4.66-30.75,12.17,30.73c10.86,9.62,21.89,22.43,25.61,38.24ZM546.58,523.62c-12.43,8.22-15.02,15.25-22.07,29.41l-110.88-128.94c9.61-21.23,16.13-40.12,22.04-64.39l28.74-9.38c12.09,12.63,22.11,25.8,30.07,41.1l50.54,97.19c4.46,8.58,3.15,25.8,1.55,34.99ZM638.18,418.72l-68.93,81.61-64.32-123.84c-2.01-3.87-.55-13.48,3.45-14.33l122.07,44.52c2.86,1.04,9.75,9.67,7.74,12.04Z"/>
</svg>
